<?xml version="1.0" encoding="UTF-8"?>
<svg id="LinkedIn_alt" width="512px" height="512px" enable-background="new 0 0 512 512" version="1.1" viewBox="0 0 512 512" xml:space="preserve" xmlns="http://www.w3.org/2000/svg"><path d="m51.326 185.85h90.011v270.87h-90.011v-270.87zm45.608-130.57c-30.807 0-50.934 20.225-50.934 46.771 0 26 19.538 46.813 49.756 46.813h0.574c31.396 0 50.948-20.814 50.948-46.813-0.589-26.546-19.551-46.771-50.344-46.771zm265.4 124.21c-47.779 0-69.184 26.28-81.125 44.71v-38.347h-90.038c1.192 25.411 0 270.87 0 270.87h90.038v-151.27c0-8.102 0.589-16.174 2.958-21.978 6.519-16.174 21.333-32.923 46.182-32.923 32.602 0 45.622 24.851 45.622 61.248v144.93h90.024v-155.32c0-83.199-44.402-121.91-103.66-121.91z"/><g fill="#fff" stroke-width=".6191"><path d="m51.386 321.32v-135.27h89.77v270.55h-89.77z"/><path d="m83.27 147.26c-16.64-3.5182-29.972-15.519-34.978-31.486-0.89398-2.8513-1.472-6.6742-1.6898-11.176-0.43784-9.05 0.80083-15.317 4.5824-23.184 2.4319-5.0595 3.6169-6.664 8.4791-11.481 4.7309-4.6866 6.6106-6.0688 11.534-8.4809 3.2348-1.5849 7.5531-3.3033 9.5961-3.8186 20.05-5.0567 40.811-0.33658 52.917 12.031 8.6072 8.793 12.983 19.786 13.007 32.677 0.014 7.515-1.3276 13.371-4.6499 20.298-6.028 12.567-18.161 21.57-33.233 24.66-6.0583 1.2419-19.604 1.2213-25.564-0.039z"/><path d="m191.61 321.32v-135.27l89.443-4.7e-4 0.16359 19.209 0.1636 19.209 4.0242-5.7213c5.1748-7.3571 14.301-16.873 21.024-21.921 9.8488-7.3952 23.34-13.081 36.552-15.404 8.1261-1.4289 22.991-1.8971 31.624-0.99601 24.389 2.5458 43.129 11.045 58.793 26.666 16.318 16.272 25.611 36.446 30.412 66.024 1.391 8.569 1.3943 8.7633 1.5956 96.035l0.2018 87.449h-89.196l-5.2e-4 -74.447c-3.1e-4 -45.431-0.24523-77.102-0.62839-81.258-1.6052-17.411-6.0599-29.579-13.913-38.005-4.7239-5.0682-9.7145-8.3054-16.055-10.414-4.5681-1.5194-5.8596-1.6664-14.907-1.6959-8.7226-0.0285-10.458 0.14121-14.533 1.4207-13.127 4.1218-23.136 12.778-29.864 25.827-5.5271 10.72-5.0615 2.2766-5.2806 95.767l-0.19405 82.805-89.426 7e-5z"/></g></svg>
