<?xml version="1.0" encoding="UTF-8"?>
<svg enable-background="new 0 0 24 24" version="1.1" viewBox="0 0 24 24" xml:space="preserve" xmlns="http://www.w3.org/2000/svg"><g id="icons"><path id="email" d="m20 3h-16c-2.2 0-4 1.8-4 4v10c0 2.2 1.8 4 4 4h16c2.2 0 4-1.8 4-4v-10c0-2.2-1.8-4-4-4zm1.6 5.8-7.9 5.3c-0.5 0.3-1.1 0.5-1.7 0.5s-1.2-0.2-1.7-0.5l-7.9-5.3c-0.4-0.3-0.5-0.9-0.2-1.4 0.3-0.4 0.9-0.5 1.4-0.2l7.9 5.3c0.3 0.2 0.8 0.2 1.1 0l7.9-5.3c0.5-0.3 1.1-0.2 1.4 0.3 0.2 0.4 0.1 1-0.3 1.3z"/></g><path d="m3.6131 20.965c-1.5671-0.16301-2.8952-1.2329-3.3955-2.7352-0.21723-0.65235-0.20309-0.21856-0.20309-6.2293 0-5.0727 0.0030284-5.3992 0.052494-5.659 0.17497-0.91894 0.65759-1.7736 1.3214-2.34 0.66072-0.56376 1.4018-0.88032 2.264-0.96714 0.4177-0.042059 16.279-0.041962 16.695 1.016e-4 0.5665 0.057233 0.97616 0.17874 1.4868 0.44099 1.085 0.55728 1.8608 1.6167 2.0986 2.866 0.04947 0.25979 0.0525 0.58626 0.0525 5.659s-3e-3 5.3992-0.0525 5.659c-0.23771 1.2484-1.0144 2.3091-2.0986 2.866-0.5106 0.26225-0.92026 0.38376-1.4868 0.44099-0.36497 0.03687-16.379 0.03543-16.735-0.0015zm9.086-6.4371c0.2773-0.06796 0.63081-0.20364 0.85352-0.32758 0.1499-0.08342 7.8898-5.2639 8.0862-5.4122 0.31788-0.24014 0.46749-0.84254 0.30224-1.217-0.20505-0.46464-0.73986-0.6675-1.2534-0.47542-0.07403 0.027692-1.9377 1.26-4.1414 2.7385-2.2037 1.4785-4.0629 2.7111-4.1314 2.7392-0.18135 0.07431-0.57444 0.06831-0.75043-0.01145-0.072847-0.03302-1.9142-1.2551-4.0919-2.7157-2.1777-1.4606-4.0117-2.6818-4.0755-2.7139-0.13535-0.067886-0.37618-0.12341-0.53525-0.12341-0.061378 0-0.19906 0.027015-0.30596 0.060033-0.39049 0.12061-0.62977 0.47032-0.63406 0.92667-0.00351 0.37399 0.13243 0.64552 0.42712 0.85315 0.43509 0.30654 7.8558 5.2716 7.9986 5.3517 0.31044 0.17417 0.79961 0.33432 1.2044 0.39428 0.19511 0.0289 0.81897-0.01097 1.0473-0.06693z" fill="#fff" stroke-width=".029021"/></svg>
