<?xml version="1.0" encoding="UTF-8"?>
<svg version="1.1" viewBox="0 0 256 256" xmlns="http://www.w3.org/2000/svg">
 <rect width="256" height="256" fill="none"/>
 <path d="M222,158.4l-46.9-20a15.6,15.6,0,0,0-15.1,1.3l-25.1,16.7a76.5,76.5,0,0,1-35.2-35h0L116.3,96a15.9,15.9,0,0,0,1.4-15.1L97.6,34a16.3,16.3,0,0,0-16.7-9.6A56.2,56.2,0,0,0,32,80c0,79.4,64.6,144,144,144a56.2,56.2,0,0,0,55.6-48.9A16.3,16.3,0,0,0,222,158.4Z"/>
 <path d="m168 223.62c-59.256-3.2316-110.85-43.249-129.08-100.11-4.3016-13.422-6.7248-28.701-6.727-42.417-0.0014-8.6657 1.332-15.494 4.4523-22.799 7.2941-17.077 22.362-29.385 40.501-33.081 6.6272-1.3505 11.097-0.55547 15.513 2.7596 3.1137 2.3374 3.4306 2.9696 14.861 29.652 6.8241 15.929 10.847 25.7 11.067 26.882 0.44531 2.3866 0.15573 5.4971-0.74108 7.9601-0.46407 1.2745-3.7205 6.5524-9.4402 15.301-4.8025 7.3453-8.7318 13.525-8.7318 13.733 0 0.5517 2.8862 5.6 5.0427 8.8204 2.9535 4.4104 6.0305 8.0565 10.322 12.231 5.5258 5.3747 11.115 9.4698 17.518 12.836l2.3422 1.2312 13.138-8.7536c7.4954-4.9941 13.99-9.1032 15.123-9.5676 2.6063-1.0689 6.7923-1.3229 9.3842-0.56943 0.96923 0.28177 12.725 5.1887 26.125 10.904 16.664 7.1084 24.93 10.79 26.158 11.651 3.9006 2.7352 6.717 8.0938 6.717 12.78 0 3.8665-1.8778 11.396-4.1851 16.781-8.2138 19.169-26.312 32.093-47.323 33.793-4.3603 0.35286-5.2566 0.35148-12.04-0.0185z" fill="#fff" stroke-width=".30955"/>
</svg>
