<?xml version="1.0" encoding="UTF-8"?>
<svg role="img" version="1.1" viewBox="0 0 24 24" xmlns="http://www.w3.org/2000/svg">
 <path d="M12.012 2.598c-5.22 0-9.452 3.9-9.452 8.709 0 3.016 1.219 5.301 3.155 6.774H5.71l.234 3.042v.004c0 .017 0 .031.004.046v.006c.024.144.15.255.301.255.053 0 .1-.015.144-.035l.011-.008L9.3 19.717c.854.196 1.767.299 2.71.299 5.22 0 9.452-3.899 9.452-8.71 0-4.81-4.233-8.709-9.454-8.709l.004.001zM10.39.72c.525-.065 1.061-.104 1.605-.104.38 0 .75.02 1.119.052l.057-.614C12.781.019 12.392 0 11.997 0c-.57 0-1.135.036-1.691.109l.083.612.001-.001zm3.797.094c.915.165 1.785.436 2.61.795l.252-.567c-.132-.056-.263-.112-.397-.165-.762-.3-1.551-.524-2.355-.671l-.11.608zm9.169 10.556c-.015.915-.155 1.806-.405 2.655l.59.175c.267-.903.416-1.854.431-2.831l-.616.001zM6.745 1.814c.811-.389 1.678-.698 2.586-.902L9.196.308c-.631.141-1.251.329-1.853.569-.297.117-.586.245-.867.381l.269.556zm13.65 1.399c-.706-.649-1.485-1.207-2.329-1.673l-.311.541c.811.445 1.561.981 2.224 1.596l.416-.462v-.002zm-5.244 18.838c.945-.24 1.845-.591 2.686-1.03l-.315-.533c-.786.413-1.631.738-2.521.967l.15.596zM3.677 4.005c.63-.638 1.347-1.2 2.13-1.675l-.327-.529c-.698.422-1.35.914-1.945 1.473-.102.094-.2.191-.3.289l.439.441.003.001zm19.48 11.28l-.568-.236c-.349.833-.803 1.614-1.354 2.332l.495.369c.577-.758 1.061-1.586 1.424-2.465h.003zM20.726 4.433c.606.675 1.122 1.425 1.534 2.228l.555-.275c-.435-.852-.979-1.645-1.627-2.366l-.465.413h.003zm2.554 3.003l-.568.244c.313.828.521 1.703.604 2.61l.615-.061c-.088-.956-.305-1.892-.651-2.793zM6.386 22.849l-.969.425-.332-1.025-.585.19.438 1.347c.029.083.09.151.167.188.041.017.083.026.126.026s.084-.009.123-.026l1.283-.563-.251-.562zm3.823-1.193c-.078-.016-.157-.027-.237-.041l-.465-.079c-.061-.009-.12 0-.172.023l-1.951.853.271.554 1.845-.803c.125.021.25.041.371.059.068.017.139.026.209.038l.129-.604zm3.728.02c-.633.104-1.281.156-1.942.156-.273 0-.525-.015-.772-.038l-.019.615c.251.024.511.04.791.04.698 0 1.383-.058 2.048-.166l-.104-.606-.002-.001zM1.517 7.116c.37-.825.852-1.598 1.425-2.302l-.47-.407c-.61.745-1.116 1.557-1.508 2.427l-.01.021.563.261zM20.532 18.21c-.612.651-1.31 1.229-2.07 1.728l.339.515c.806-.524 1.541-1.14 2.19-1.829l-.459-.414zM.97 14.551c-.188-.796-.293-1.676-.323-2.671H.031c.03 1.071.145 2.005.345 2.843l.594-.172zM.538 7.925c-.297.91-.468 1.853-.51 2.813l.615.03c.042-.923.209-1.816.487-2.662l-.592-.181zm4.199 13.26l-.59-1.815c-.02-.06-.056-.109-.105-.147-.232-.182-.449-.366-.66-.558l-.422.446c.194.184.408.362.629.541l.561 1.717.587-.184zm-2.105-3.292c-.591-.691-1.037-1.449-1.355-2.315l-.573.229c.041.107.083.216.126.322.33.796.771 1.509 1.342 2.175l.46-.411z"/>
 <g fill="#fff" stroke-width=".029021">
  <path d="m6.1295 21.389c-0.060258-0.026597-0.10952-0.077202-0.13373-0.13737-0.023377-0.058108-0.080065-0.65552-0.14535-1.5318-0.058864-0.79008-0.11443-1.4888-0.12348-1.5526-0.014336-0.10112-0.040787-0.13479-0.20518-0.26118-0.27907-0.21457-0.89599-0.83115-1.147-1.1464-0.94486-1.1866-1.5038-2.5411-1.7244-4.1789-0.040601-0.30146-0.052768-0.58244-0.052783-1.2189-2.02e-5 -0.88891 0.024518-1.1434 0.17562-1.821 0.65471-2.9362 2.961-5.3861 6.0298-6.4052 0.74756-0.24826 1.4734-0.40261 2.2534-0.47922 0.43224-0.042447 1.4896-0.042653 1.9157-3.736e-4 3.1663 0.31415 5.9006 2.0221 7.3972 4.6208 0.52721 0.91541 0.8773 1.9646 1.0242 3.0693 0.04763 0.35834 0.04763 1.557 0 1.9154-0.19368 1.4569-0.72531 2.7773-1.5806 3.9256-0.3183 0.42735-0.42199 0.54708-0.8432 0.97361-1.3971 1.4148-3.1968 2.3418-5.2176 2.6876-0.66977 0.11461-1.0396 0.14404-1.7957 0.14291-0.88742-0.0013-1.7141-0.08318-2.425-0.24011l-0.23395-0.05165-1.4728 0.85163c-0.81003 0.4684-1.5014 0.85799-1.5363 0.86577-0.034941 0.0078-0.10646-0.0048-0.15893-0.02797z"/>
  <path d="m0.19589 10.731-0.13785-0.01087 3.52e-5 -0.16528c5.63e-5 -0.26441 0.082609-0.9129 0.1762-1.3841 0.072009-0.36257 0.2695-1.1412 0.30659-1.2087 0.009674-0.017613 0.52288 0.12976 0.55149 0.15837 0.00719 0.00719-0.025583 0.14317-0.072824 0.30219-0.17817 0.59974-0.32894 1.4292-0.36941 2.0323l-0.019961 0.29746-0.14821-0.0052c-0.081515-0.0029-0.21024-0.01012-0.28606-0.0161z"/>
  <path d="m0.32412 14.404c-0.14105-0.68558-0.22824-1.3944-0.25728-2.0918l-0.017826-0.42805h0.5773l0.035906 0.55864c0.019748 0.30726 0.055271 0.70883 0.078939 0.89238 0.04497 0.34876 0.174 1.0919 0.20247 1.1661 0.012695 0.03308-0.039035 0.05841-0.22414 0.10976-0.13236 0.03671-0.26158 0.07258-0.28717 0.07971-0.03792 0.01056-0.057929-0.04247-0.10819-0.28677z"/>
  <path d="m1.9727 18.031c-0.35868-0.45433-0.62936-0.87905-0.88466-1.3881-0.1567-0.31244-0.37165-0.8131-0.3556-0.82824 0.016198-0.01528 0.52594-0.21515 0.53182-0.20852 0.00342 0.0039 0.054365 0.12456 0.1132 0.26821 0.24327 0.59397 0.6622 1.3103 1.0391 1.7768l0.19285 0.23866-0.20316 0.18214c-0.11174 0.10018-0.21272 0.18551-0.22442 0.18963-0.011695 0.0041-0.10582-0.09962-0.20918-0.23053z"/>
  <path d="m3.8781 20.489-0.28212-0.85556-0.1645-0.134c-0.090478-0.073702-0.22935-0.1923-0.3086-0.26356l-0.1441-0.12956 0.40939-0.40939 0.36459 0.3086c0.20052 0.16973 0.37323 0.33776 0.38379 0.37339 0.010564 0.03564 0.14347 0.44789 0.29534 0.91611 0.15187 0.46822 0.26484 0.86164 0.25103 0.87427-0.023073 0.02109-0.46832 0.17526-0.50616 0.17526-0.00909 0-0.14349-0.385-0.29865-0.85556z"/>
  <path d="m5.052 23.906c-0.070434-0.065711-0.12462-0.19972-0.30676-0.75875-0.12167-0.37342-0.21071-0.68841-0.19786-0.69998 0.012846-0.01157 0.11761-0.0491 0.23281-0.0834s0.22857-0.06969 0.25193-0.07865c0.032938-0.01264 0.07913 0.09643 0.20578 0.48592 0.089822 0.27622 0.16733 0.50624 0.17224 0.51114 0.00491 0.0049 0.22082-0.0839 0.4798-0.19735 0.25898-0.11345 0.47947-0.1979 0.48998-0.18766 0.041053 0.03998 0.22971 0.49461 0.21201 0.51092-0.0531 0.04896-1.3159 0.57761-1.3798 0.57761-0.041319 0-0.1128-0.03562-0.16016-0.07981z"/>
  <path d="m7.532 22.682-0.13196-0.26275 0.094396-0.03964c0.051918-0.0218 0.50576-0.21992 1.0085-0.44027l0.91415-0.40064 0.37265 0.06038c0.20496 0.03321 0.37848 0.06621 0.38559 0.07333 0.01188 0.01188-0.09466 0.54189-0.11252 0.55976-0.0043 0.0043-0.13391-0.01277-0.288-0.03795l-0.28017-0.04579-0.89187 0.38891c-0.49053 0.2139-0.90244 0.39307-0.91536 0.39816-0.012918 0.0051-0.082869-0.10899-0.15545-0.25351z"/>
  <path d="m11.623 22.427c-0.11173-0.0048-0.24559-0.01586-0.29746-0.02465l-0.09432-0.01599v-0.56583l0.62286 0.01207c0.63386 0.01229 1.2511-0.02184 1.769-0.09781 0.1583-0.02322 0.29265-0.03739 0.29856-0.03149 0.02202 0.02202 0.1013 0.54456 0.08508 0.56078-0.05394 0.05394-1.7567 0.19833-2.0905 0.17726-0.04953-0.0031-0.18148-0.0096-0.29321-0.01435z"/>
  <path d="m15.093 21.76c-0.03636-0.1508-0.06045-0.27984-0.05355-0.28674 0.0069-0.0069 0.18787-0.06434 0.40216-0.12764 0.62027-0.18323 1.2976-0.44766 1.8278-0.71354l0.24839-0.12456 0.1484 0.25144 0.1484 0.25144-0.36777 0.18158c-0.57358 0.2832-1.451 0.61454-2.0823 0.78631l-0.20546 0.05591z"/>
  <path d="m18.635 20.179c-0.129-0.19578-0.1479-0.2401-0.11117-0.26066 0.10554-0.05907 0.75602-0.54622 1.0303-0.77159 0.16464-0.1353 0.45376-0.39486 0.64248-0.57681l0.34313-0.33082 0.19912 0.18045c0.10951 0.09924 0.19912 0.18885 0.19912 0.19912 0 0.05372-0.63 0.66551-1.0012 0.97226-0.40767 0.33688-1.0756 0.82618-1.1256 0.8246-0.01136-3.6e-4 -0.09061-0.10681-0.17609-0.23655z"/>
  <path d="m21.518 17.571c-0.11153-0.08265-0.21382-0.16056-0.22731-0.17312-0.01348-0.01256 0.07986-0.17113 0.20744-0.35238 0.38526-0.54732 0.75676-1.1951 0.97954-1.708 0.05893-0.13567 0.11072-0.25079 0.11511-0.25583 0.0074-0.0085 0.51065 0.19247 0.53073 0.21193 0.01358 0.01316-0.27395 0.6373-0.40794 0.8855-0.25564 0.47354-0.7226 1.2083-0.92805 1.4603l-0.06674 0.08186z"/>
  <path d="m23.245 14.099c-0.13567-0.04021-0.25135-0.07773-0.25707-0.08337-0.0057-0.0056 0.03648-0.20364 0.09378-0.44001 0.16199-0.66827 0.27901-1.508 0.27928-2.0041l9.9e-5 -0.18138 0.59492-1.21e-4 -0.0072 0.19595c-0.0244 0.65931-0.13569 1.4782-0.28036 2.0629-0.11398 0.46068-0.1338 0.52737-0.15607 0.52522-0.01136-0.0011-0.13165-0.0349-0.26732-0.07511z"/>
  <path d="m23.322 10.164c-0.13745-0.95083-0.26436-1.5243-0.47384-2.1413l-0.11366-0.33473 0.25708-0.11227c0.1517-0.066248 0.26753-0.10153 0.28255-0.086068 0.04077 0.041943 0.2587 0.71813 0.36386 1.129 0.08973 0.35057 0.2193 1.0611 0.26245 1.4393l0.01853 0.16238-0.22482 0.019c-0.36153 0.03056-0.35672 0.03153-0.37216-0.07531z"/>
  <path d="m22.083 6.3051c-0.2592-0.46286-0.70061-1.1093-1.0394-1.5222l-0.29025-0.35376 0.42874-0.38372 0.11009 0.12143c0.34136 0.37653 0.80374 1.0142 1.1517 1.5885 0.17343 0.28618 0.34681 0.61506 0.33148 0.62878-0.01534 0.013736-0.48589 0.24711-0.49825 0.24711-0.0063 0-0.09372-0.14676-0.19417-0.32612z"/>
  <path d="m19.877 3.5661c-0.24988-0.26996-1.4806-1.1605-1.9203-1.3897-0.09174-0.047798-0.16683-0.094991-0.16687-0.10487-1.69e-4 -0.044094 0.27046-0.48989 0.2974-0.48989 0.04195 0 0.46129 0.25372 0.89237 0.53993 0.36529 0.24253 0.99966 0.73352 1.2551 0.9714l0.13779 0.12833-0.19144 0.2104c-0.10529 0.11572-0.20093 0.2104-0.21253 0.2104s-0.05275-0.034203-0.09145-0.076007z"/>
  <path d="m16.559 1.4928c-0.51793-0.22413-1.7199-0.58466-2.1742-0.65213-0.07709-0.01145-0.14706-0.038813-0.1555-0.060806-0.01359-0.035415 0.06412-0.52894 0.08687-0.55168 0.01555-0.015552 0.86298 0.18216 1.181 0.27553 0.683 0.20054 1.5089 0.51072 1.5093 0.56685 3.38e-4 0.046202-0.20915 0.51132-0.22974 0.51008-0.0094-5.723e-4 -0.10743-0.040095-0.21773-0.087829z"/>
  <path d="m10.364 0.43691c-0.01989-0.15204-0.02903-0.28798-0.02031-0.30209 0.04993-0.080786 2.3535-0.14993 2.6972-0.080964l0.11176 0.022428-0.02036 0.26657c-0.0112 0.14662-0.02892 0.27579-0.03938 0.28706-0.01046 0.011264-0.22789 0.006742-0.48318-0.010051-0.57333-0.037712-1.7723 0.006443-2.1349 0.078626-0.07412 0.014752-0.07489 0.012924-0.1108-0.26158z"/>
  <path d="m6.6907 1.6759c-0.029049-0.059855-0.083519-0.17734-0.12105-0.26108l-0.06823-0.15226 0.19548-0.090224c0.39516-0.18239 1.1279-0.46614 1.4939-0.57852 0.36278-0.11139 0.91898-0.26012 0.97275-0.26012 0.014341 0 0.04865 0.10774 0.076242 0.23942 0.027592 0.13168 0.056049 0.25986 0.063236 0.28484 0.010243 0.0356-0.035615 0.05676-0.21209 0.097867-0.55442 0.12914-1.3714 0.40787-1.972 0.67282-0.19461 0.085845-0.35869 0.15608-0.36464 0.15608-0.00594 0-0.034575-0.048972-0.063624-0.10883z"/>
  <path d="m3.4714 3.7865c-0.10564-0.11198-0.19206-0.21557-0.19206-0.2302s0.14622-0.15948 0.32494-0.32188c0.54311-0.49354 1.0707-0.90185 1.6215-1.2549l0.24869-0.1594 0.14308 0.23334c0.078696 0.12834 0.14683 0.2426 0.15141 0.25392 0.00458 0.011321-0.11296 0.098212-0.26118 0.19309-0.52912 0.33869-1.1168 0.80045-1.5938 1.2523l-0.2505 0.2373z"/>
  <path d="m1.2489 6.9758c-0.13514-0.063427-0.2514-0.12101-0.25835-0.12797-0.018914-0.018914 0.26149-0.58445 0.46463-0.93709 0.22364-0.38823 0.5223-0.83606 0.80115-1.2013l0.21538-0.2821 0.45182 0.38958-0.10503 0.12817c-0.35774 0.43656-0.81644 1.159-1.1222 1.7675-0.10585 0.21063-0.19453 0.38197-0.19705 0.38075-0.0025254-0.0012142-0.11516-0.054102-0.2503-0.11753z"/>
 </g>
</svg>
