<?xml version="1.0" encoding="UTF-8" standalone="no"?>
<svg
   height="320"
   id="Layer_1"
   version="1.1"
   viewBox="0 0 191.89999 320"
   width="191.89999"
   xml:space="preserve"
   sodipodi:docname="211620_b_right_arrow_icon.svg"
   xmlns:inkscape="http://www.inkscape.org/namespaces/inkscape"
   xmlns:sodipodi="http://sodipodi.sourceforge.net/DTD/sodipodi-0.dtd"
   xmlns="http://www.w3.org/2000/svg"
   xmlns:svg="http://www.w3.org/2000/svg"><defs
     id="defs7" /><sodipodi:namedview
     id="namedview5"
     pagecolor="#505050"
     bordercolor="#eeeeee"
     borderopacity="1"
     inkscape:showpageshadow="0"
     inkscape:pageopacity="0"
     inkscape:pagecheckerboard="0"
     inkscape:deskcolor="#505050"
     showgrid="false" /><path
     d="m 24.7,317.1 2.1,-1.8 156.5,-136 c 5.3,-4.6 8.6,-11.5 8.6,-19.2 0,-7.7 -3.4,-14.6 -8.6,-19.2 L 27.1,5 24.5,2.7 C 22,1 19,0 15.8,0 7.1,0 0,7.4 0,16.6 v 0 286.8 0 c 0,9.2 7.1,16.6 15.8,16.6 3.3,0 6.4,-1.1 8.9,-2.9 z"
     id="path2" /><path
     style="fill:#ffffff;stroke-width:0.619105"
     d="M 9.94438,318.26351 C 6.3121,316.60772 3.92415,314.3613 2.19266,310.97124 L 0.6578,307.96614 0.48317,161.23821 C 0.35772,55.83858 0.50057,13.81275 0.99035,12.03386 2.04426,8.20597 4.71513,4.79989 8.39375,2.592503 c 2.80942,-1.685812 3.95997,-2.009887 7.09519,-1.998495 2.2921,0.0083 4.70155,0.453973 6.21844,1.150145 3.06192,1.405264 161.30088,138.897757 164.52554,142.954857 3.54732,4.46305 5.00101,8.77194 5.05767,14.99144 0.0546,5.98614 -1.06585,9.9664 -4.091,14.53354 -2.3487,3.54588 -160.96501,141.66944 -165.13281,143.79813 -3.41859,1.74604 -8.59553,1.84912 -12.1224,0.24139 z"
     id="path182" /></svg>
