<?xml version="1.0" encoding="UTF-8"?>
<svg enable-background="new 0 0 24 24" version="1.1" viewBox="0 0 24 24" xml:space="preserve" xmlns="http://www.w3.org/2000/svg"><g id="icons" transform="matrix(-1,0,0,1,24,0)"><g id="menu"><path d="m20 10h-16c-1.1 0-2 0.9-2 2s0.9 2 2 2h16c1.1 0 2-0.9 2-2s-0.9-2-2-2z"/><path d="m4 8h12c1.1 0 2-0.9 2-2s-0.9-2-2-2h-12c-1.1 0-2 0.9-2 2s0.9 2 2 2z"/><path d="m16 16h-12c-1.1 0-2 0.9-2 2s0.9 2 2 2h12c1.1 0 2-0.9 2-2s-0.9-2-2-2z"/></g></g><g fill="#fff" stroke-width=".028402"><path d="m20.283 7.9651c1.0032-0.14895 1.7488-1.0601 1.6932-2.0692-0.04821-0.87495-0.65167-1.6024-1.5097-1.82-0.22151-0.056171-0.31221-0.056971-6.4641-0.056971-6.17 0-6.2419 6.394e-4 -6.4641 0.057455-0.69512 0.17777-1.203 0.65119-1.4315 1.3343-0.04038 0.12073-0.06717 0.28877-0.07742 0.4856-0.02007 0.38545 0.03527 0.64613 0.21233 1.0002 0.18131 0.36256 0.51126 0.69447 0.85892 0.86403 0.49471 0.24128-0.19371 0.21863 6.8024 0.22378 3.4211 0.00252 6.2921-0.00611 6.38-0.019164z"/><path d="m20.407 13.942c0.10935-0.02301 0.31961-0.10019 0.46726-0.17151 0.22517-0.10878 0.30796-0.1692 0.51362-0.37486 0.20307-0.20307 0.26805-0.2915 0.37834-0.51493 0.29175-0.59101 0.29175-1.1698 0-1.7608-0.11029-0.22342-0.17527-0.31185-0.37834-0.51493-0.20583-0.20583-0.28826-0.26596-0.51362-0.37469-0.4923-0.23752 0.29608-0.21814-8.8744-0.21814s-8.3821-0.019379-8.8744 0.21814c-0.22536 0.10873-0.30779 0.16886-0.51362 0.37469-0.20307 0.20307-0.26805 0.2915-0.37834 0.51493-0.29175 0.59101-0.29175 1.1698 0 1.7608 0.11029 0.22342 0.17527 0.31185 0.37834 0.51493 0.20583 0.20583 0.28826 0.26596 0.51362 0.37469 0.49257 0.23765-0.29962 0.21843 8.8945 0.21583 7.096-2e-3 8.2147-0.0079 8.387-0.04414z"/><path d="m20.478 19.923c0.85-0.2208 1.4502-0.94936 1.4981-1.8185 0.01943-0.3526-0.04036-0.63447-0.20907-0.98552-0.10466-0.21778-0.16737-0.30433-0.36015-0.49704-0.35412-0.35399-0.6994-0.52725-1.1756-0.5899-0.14778-0.01944-2.2801-0.02638-6.3852-0.02078-6.9319 0.0095-6.254-0.0135-6.7456 0.22841-0.1871 0.09207-0.29316 0.17012-0.47134 0.34688-0.25527 0.25323-0.40296 0.48405-0.51673 0.8076-0.06765 0.19238-0.07593 0.25728-0.07644 0.59919-4.88e-4 0.32706 0.0092 0.41266 0.06575 0.58225 0.23247 0.69691 0.73561 1.1692 1.4364 1.3485 0.22226 0.05684 0.29144 0.05744 6.4757 0.05589 6.1012-0.0015 6.2562-0.0029 6.4641-0.0569z"/></g></svg>
