<?xml version="1.0" encoding="UTF-8"?>
<svg version="1.1" viewBox="0 0 32 32" xmlns="http://www.w3.org/2000/svg">
 <defs>
  <style>.cls-1{fill:none;}</style>
 </defs>
 <g fill="#fff" data-name="Layer 2">
  <path d="m16 12a2 2 0 1 1 2-2 2 2 0 0 1-2 2z"/>
  <path d="M16,29A13,13,0,1,1,29,16,13,13,0,0,1,16,29ZM16,5A11,11,0,1,0,27,16,11,11,0,0,0,16,5Z"/>
  <path d="m16 24a2 2 0 0 1-2-2v-6a2 2 0 0 1 4 0v6a2 2 0 0 1-2 2zm0-8z"/>
 </g>
 <g id="frame">
  <rect class="cls-1" width="32" height="32"/>
 </g>
</svg>
