<?xml version="1.0" encoding="UTF-8"?>
<svg width="768" height="1024" version="1.1" xmlns="http://www.w3.org/2000/svg">
 <path d="M640 768H128V257.90599999999995L256 256V128H0v768h768V576H640V768zM384 128l128 128L320 448l128 128 192-192 128 128V128H384z"/>
 <path d="m0 512v-383.23h255.07v125.92l-13.194 0.80727c-7.2566 0.44401-25.833 0.80727-41.282 0.80727-15.448 0-38.207 0.36653-50.574 0.81451l-22.486 0.81449v510.99h512.62v-191.92h127.54v318.22h-767.69z" fill="#fff" stroke-width="1.2382"/>
 <path d="m384.46 511.38-63.14-63.15 191.91-191.92-127.52-127.54h381.98v381.98l-127.54-127.52-95.654 95.648c-52.61 52.606-95.933 95.648-96.275 95.648-0.34138 0-29.034-28.417-63.761-63.15z" fill="#fff" stroke-width="1.2382"/>
</svg>
